<svg width="21" height="30" viewBox="0 0 21 30" fill="none" xmlns="http://www.w3.org/2000/svg">
    <path
        d="M14.524 12.548C15.148 12.548 15.796 12.68 16.468 12.944C17.14 13.208 17.788 13.556 18.412 13.988H18.376C19 14.42 19.48 15.008 19.816 15.752C20.152 16.496 20.32 17.348 20.32 18.308V23.24C20.32 25.184 19.672 26.636 18.376 27.596C17.752 28.052 17.104 28.412 16.432 28.676C15.784 28.916 15.148 29.036 14.524 29.036H6.676C6.052 29.036 5.404 28.916 4.732 28.676C4.084 28.412 3.448 28.052 2.824 27.596C1.528 26.636 0.88 25.184 0.88 23.24V20.864C0.88 19.736 1.588 19.172 3.004 19.172C4.444 19.172 5.164 19.736 5.164 20.864V22.952C5.164 23.576 5.344 24.14 5.704 24.644C6.064 25.148 6.688 25.4 7.576 25.4H13.624C14.512 25.4 15.136 25.148 15.496 24.644C15.856 24.14 16.036 23.576 16.036 22.952V18.596C16.036 17.996 15.856 17.444 15.496 16.94C15.136 16.412 14.512 16.148 13.624 16.148H6.676C5.428 16.148 4.144 15.692 2.824 14.78C1.528 13.772 0.88 12.32 0.88 10.424V6.14C0.88 5.18 1.048 4.34 1.384 3.62C1.72 2.876 2.2 2.276 2.824 1.82H2.788C3.412 1.412 4.06 1.076 4.732 0.811998C5.404 0.547999 6.052 0.415999 6.676 0.415999H14.524C15.148 0.415999 15.796 0.547999 16.468 0.811998C17.14 1.076 17.788 1.412 18.412 1.82H18.376C19 2.276 19.48 2.876 19.816 3.62C20.152 4.34 20.32 5.18 20.32 6.14V8.264C20.32 9.392 19.6 9.956 18.16 9.956C16.744 9.956 16.036 9.392 16.036 8.264V6.464C16.036 5.864 15.856 5.312 15.496 4.808C15.136 4.304 14.512 4.052 13.624 4.052H7.576C6.688 4.052 6.064 4.304 5.704 4.808C5.344 5.312 5.164 5.864 5.164 6.464V10.136C5.164 10.76 5.344 11.324 5.704 11.828C6.064 12.308 6.688 12.548 7.576 12.548H14.524Z"
        fill="#D1D1D1" />
</svg>